<svg xmlns="http://www.w3.org/2000/svg" viewBox="0 0 41.84 41.84"><defs><style>.cls-1{fill:#fff;}.cls-2{fill:#f23030;}</style></defs><title>Middel 2</title><g id="Laag_2" data-name="Laag 2"><g id="Footer"><g id="Icoon_twitter" data-name="Icoon twitter"><circle class="cls-1" cx="20.92" cy="20.92" r="20.92"/><path class="cls-2" d="M30.41,17.38c0,.18,0,.36,0,.54a11.82,11.82,0,0,1-18.2,10,8.22,8.22,0,0,0,1,.06,8.35,8.35,0,0,0,5.16-1.78,4.18,4.18,0,0,1-3.88-2.89,4.13,4.13,0,0,0,.78.08,4.42,4.42,0,0,0,1.1-.15A4.16,4.16,0,0,1,13,19.12v-.05a4.21,4.21,0,0,0,1.89.52,4.15,4.15,0,0,1-1.85-3.46A4.11,4.11,0,0,1,13.63,14a11.78,11.78,0,0,0,8.57,4.34,4.15,4.15,0,0,1,4.05-5.1,4.11,4.11,0,0,1,3,1.31,8,8,0,0,0,2.64-1,4.13,4.13,0,0,1-1.82,2.3,8.22,8.22,0,0,0,2.38-.65A8.46,8.46,0,0,1,30.41,17.38Z"/></g></g></g></svg>