<svg xmlns="http://www.w3.org/2000/svg" viewBox="0 0 41.84 41.84"><defs><style>.cls-1{fill:#fff;}.cls-2{fill:#f23030;}</style></defs><title>Middel 4</title><g id="Laag_2" data-name="Laag 2"><g id="Footer"><g id="Icoon_instagram" data-name="Icoon instagram"><circle class="cls-1" cx="20.92" cy="20.92" r="20.92"/><path class="cls-2" d="M28.58,32.77H15a5.06,5.06,0,0,1-5.05-5.05V14.12a5.06,5.06,0,0,1,5.05-5H28.58a5.05,5.05,0,0,1,5,5v13.6A5,5,0,0,1,28.58,32.77ZM15,10.7a3.43,3.43,0,0,0-3.42,3.42v13.6A3.42,3.42,0,0,0,15,31.14H28.58A3.42,3.42,0,0,0,32,27.72V14.12a3.42,3.42,0,0,0-3.41-3.42Z"/><path class="cls-2" d="M21.77,27.38a6.46,6.46,0,1,1,6.47-6.46A6.46,6.46,0,0,1,21.77,27.38Zm0-11.29a4.83,4.83,0,1,0,4.83,4.83A4.84,4.84,0,0,0,21.77,16.09Z"/><rect class="cls-2" x="26.81" y="12.41" width="3.47" height="3.47" rx="1.45" ry="1.45"/></g></g></g></svg>