<svg xmlns="http://www.w3.org/2000/svg" viewBox="0 0 31.06 31.05"><defs><style>.cls-1{fill:#5bc2e7;}.cls-2{fill:#fff;}</style></defs><title>Middel 1</title><g id="Laag_2" data-name="Laag 2"><g id="Wie_is_wie" data-name="Wie is wie"><g id="Icoon_mailen" data-name="Icoon mailen"><path class="cls-1" d="M13.28,16.7a.63.63,0,0,1-.13.93c-1.21,1-2.43,2-3.63,2.95l-.14.11a.61.61,0,0,1-.68.07.74.74,0,0,1-.38-.63,1.3,1.3,0,0,1,.25-.39c1.26-1,2.53-2.08,3.8-3.1A.63.63,0,0,1,13.28,16.7Z"/><path class="cls-1" d="M22.56,20.59a.61.61,0,0,1-.82.14c-.22-.16-.43-.34-.64-.51L17.88,17.6a.58.58,0,0,1-.2-.71.68.68,0,0,1,.6-.45,2.09,2.09,0,0,1,.4.19l3.82,3.11A.6.6,0,0,1,22.56,20.59Z"/><path class="cls-1" d="M18.19,15.08,16,17a.67.67,0,0,1-1,0c-2.1-1.85-4.21-3.72-6.33-5.57a.69.69,0,0,1-.28-.63.6.6,0,0,1,.37-.5.65.65,0,0,1,.68.11l1.27,1.13,4.72,4.15.1.07,1.81-1.58,4.26-3.72a.64.64,0,0,1,1.11.31.62.62,0,0,1-.23.62Q20.32,13.22,18.19,15.08Z"/><path class="cls-1" d="M15.53,0A15.53,15.53,0,1,0,31.06,15.53,15.54,15.54,0,0,0,15.53,0Zm0,22H8.8a1.7,1.7,0,0,1-1.71-.9,1.77,1.77,0,0,1-.2-.82c0-3.19,0-6.37,0-9.57A1.64,1.64,0,0,1,8.64,9H22.17a2,2,0,0,1,1.26.28,1.53,1.53,0,0,1,.73,1.31c0,2.38,0,4.76,0,7.15,0,.82,0,1.65,0,2.46A1.72,1.72,0,0,1,22.41,22C20.11,22,17.82,22,15.53,22Z"/><path class="cls-2" d="M25.4,10.32a2.88,2.88,0,0,0-3-2.55H8.64a3.36,3.36,0,0,0-1,.16,2.88,2.88,0,0,0-2,3V19.8a6.41,6.41,0,0,0,0,1.08,2.91,2.91,0,0,0,2.91,2.4H22a5.08,5.08,0,0,0,1.17-.08,2.85,2.85,0,0,0,2.29-2.88c0-2.86,0-5.7,0-8.56A8.64,8.64,0,0,0,25.4,10.32Zm-3,11.7c-2.3,0-4.59,0-6.88,0H8.8a1.7,1.7,0,0,1-1.71-.9,1.77,1.77,0,0,1-.2-.82c0-3.19,0-6.37,0-9.57A1.64,1.64,0,0,1,8.64,9H22.17a2,2,0,0,1,1.26.28,1.53,1.53,0,0,1,.73,1.31c0,2.38,0,4.76,0,7.15,0,.82,0,1.65,0,2.46A1.72,1.72,0,0,1,22.41,22Z"/><path class="cls-2" d="M24.17,17.78c0-2.39,0-4.77,0-7.15a1.53,1.53,0,0,0-.73-1.31A2,2,0,0,0,22.17,9H8.64a1.64,1.64,0,0,0-1.75,1.69c0,3.2,0,6.38,0,9.57a1.77,1.77,0,0,0,.2.82A1.7,1.7,0,0,0,8.8,22h6.73c2.29,0,4.58,0,6.88,0a1.72,1.72,0,0,0,1.77-1.78C24.15,19.43,24.17,18.6,24.17,17.78Zm-11-.15c-1.21,1-2.43,2-3.63,2.95l-.14.11a.61.61,0,0,1-.68.07.74.74,0,0,1-.38-.63,1.3,1.3,0,0,1,.25-.39c1.26-1,2.53-2.08,3.8-3.1a.63.63,0,1,1,.78,1ZM15,17c-2.1-1.85-4.21-3.72-6.33-5.57a.69.69,0,0,1-.28-.63.6.6,0,0,1,.37-.5.65.65,0,0,1,.68.11l1.27,1.13,4.72,4.15.1.07,1.81-1.58,4.26-3.72a.64.64,0,0,1,1.11.31.62.62,0,0,1-.23.62q-2.14,1.85-4.27,3.71L16,17A.67.67,0,0,1,15,17Zm7.58,3.61a.61.61,0,0,1-.82.14c-.22-.16-.43-.34-.64-.51L17.88,17.6a.58.58,0,0,1-.2-.71.68.68,0,0,1,.6-.45,2.09,2.09,0,0,1,.4.19l3.82,3.11A.6.6,0,0,1,22.56,20.59Z"/><path class="cls-1" d="M22.46,11.37q-2.14,1.85-4.27,3.71L16,17a.67.67,0,0,1-1,0c-2.1-1.85-4.21-3.72-6.33-5.57a.69.69,0,0,1-.28-.63.6.6,0,0,1,.37-.5.65.65,0,0,1,.68.11l1.27,1.13,4.72,4.15.1.07,1.81-1.58,4.26-3.72a.64.64,0,0,1,1.11.31A.62.62,0,0,1,22.46,11.37Z"/><path class="cls-1" d="M22.56,20.59a.61.61,0,0,1-.82.14c-.22-.16-.43-.34-.64-.51L17.88,17.6a.58.58,0,0,1-.2-.71.68.68,0,0,1,.6-.45,2.09,2.09,0,0,1,.4.19l3.82,3.11A.6.6,0,0,1,22.56,20.59Z"/><path class="cls-1" d="M13.15,17.63c-1.21,1-2.43,2-3.63,2.95l-.14.11a.61.61,0,0,1-.68.07.74.74,0,0,1-.38-.63,1.3,1.3,0,0,1,.25-.39c1.26-1,2.53-2.08,3.8-3.1a.63.63,0,1,1,.78,1Z"/></g></g></g></svg>