<svg xmlns="http://www.w3.org/2000/svg" viewBox="0 0 23.02 15.83"><defs><style>.cls-1{fill:#fff;}</style></defs><title>Middel 6</title><g id="Laag_2" data-name="Laag 2"><g id="Menu_voor_laaggeletterden" data-name="Menu voor laaggeletterden"><g id="Icoon_laaggeletterdheid" data-name="Icoon laaggeletterdheid"><path class="cls-1" d="M0,0H6.77V2.87H5.1V13H8.55a.56.56,0,0,0,.27-.08A.87.87,0,0,0,9,12.68a1,1,0,0,0,.17-.27.74.74,0,0,0,.06-.28V10h3.38v5.82H0V13H1.64V2.87H0Z"/><path class="cls-1" d="M15.43,6.33h4.06V8.05h-1v6.06h2.07a.33.33,0,0,0,.16,0,.53.53,0,0,0,.14-.12.51.51,0,0,0,.09-.16.38.38,0,0,0,0-.17V12.34h2v3.49H15.43V14.11h1V8.05h-1Z"/></g></g></g></svg>