<svg xmlns="http://www.w3.org/2000/svg" viewBox="0 0 41.84 41.84"><defs><style>.cls-1{fill:#fff;}.cls-2{fill:#f23030;}</style></defs><title>Middel 6</title><g id="Laag_2" data-name="Laag 2"><g id="Footer"><g id="Icoon_youtube" data-name="Icoon youtube"><circle class="cls-1" cx="20.92" cy="20.92" r="20.92"/><path class="cls-2" d="M33.26,16.84v8.59c-.06.23-.13.46-.17.7A4.14,4.14,0,0,1,29.23,30a14.76,14.76,0,0,1-2.3.18q-6,0-12,0A13.79,13.79,0,0,1,12.75,30c-2.4-.36-3.91-1.6-4-3.88-.2-3.36-.13-6.75,0-10.13a3,3,0,0,1,2.43-2.8A6.56,6.56,0,0,1,13,12.87c5.36,0,10.73-.09,16.09,0,2.59.06,3.88,1.31,4.09,3.64A1.25,1.25,0,0,0,33.26,16.84ZM18,21.32c0,.85,0,1.71,0,2.56s.53,1.19,1.31.79q2.46-1.25,4.88-2.56c.8-.43.79-1.13,0-1.55C22.6,19.69,21,18.85,19.32,18c-.77-.39-1.26-.08-1.28.82S18,20.5,18,21.32Z"/></g></g></g></svg>