<svg xmlns="http://www.w3.org/2000/svg" viewBox="0 0 30.44 26.89"><defs><style>.cls-1{fill:#fff;}</style></defs><title>Middel 4</title><g id="Laag_2" data-name="Laag 2"><g id="Menu_voor_laaggeletterden" data-name="Menu voor laaggeletterden"><g id="Icoon_geluid" data-name="Icoon geluid"><path class="cls-1" d="M16.44.15a2,2,0,0,0-2.2.58C12,2.64,9.78,4.55,7.5,6.41A2.78,2.78,0,0,1,6,7H0V19.33H6.08a2.1,2.1,0,0,1,1.24.48q3.43,3.08,6.79,6.24a2.08,2.08,0,0,0,2.35.68c.94-.37,1.09-1.19,1.09-2.09q0-11.19,0-22.4A2,2,0,0,0,16.44.15Z"/><path class="cls-1" d="M30.43,13c0-.49-.14-1.71-.17-1.84a11.21,11.21,0,0,0-7-8.57c-.44-.19-.82-.5-1.25.13-.29.43.44.69.77.91a24.36,24.36,0,0,1,3.06,1.93,10.2,10.2,0,0,1-3,17.06c-.37.16-.94.46-.85.95.16.92.91.31,1.35.11A11.32,11.32,0,0,0,30,16.13v0a10.74,10.74,0,0,0,.39-2.7C30.44,13.28,30.44,13.15,30.43,13Z"/><path class="cls-1" d="M25.17,13.17A7.82,7.82,0,0,0,20,5.79l-.19,0a.55.55,0,0,0-.26,1l.06,0A6.82,6.82,0,0,1,24,13.18a6.74,6.74,0,0,1-4.19,6.24,2.6,2.6,0,0,1-.36.13c-.77.26-.72,1.48.56,1A7.9,7.9,0,0,0,25.17,13.17Z"/></g></g></g></svg>