<svg xmlns="http://www.w3.org/2000/svg" viewBox="0 0 41.84 41.84"><title>Middel 5</title><g id="Laag_2" data-name="Laag 2"><g id="Footer"><g id="Icoon_linkedin" data-name="Icoon linkedin"><circle fill="#fff" cx="20.92" cy="20.92" r="20.92"/><path fill="#f23030" d="M22.14,18.49v0l0,0Z"/><path fill="#f23030" d="M15.39,29.66H11.05V16.6h4.34ZM13.22,14.81h0a2.26,2.26,0,1,1,.06-4.51,2.26,2.26,0,1,1,0,4.51ZM31.05,29.66H26.71v-7c0-1.75-.63-3-2.2-3a2.38,2.38,0,0,0-2.23,1.59,2.84,2.84,0,0,0-.14,1.06v7.29H17.79s.06-11.84,0-13.06h4.35v1.85a4.32,4.32,0,0,1,3.91-2.16c2.86,0,5,1.87,5,5.88Z"/></g></g></g></svg>